<svg width="73" height="24" viewBox="0 0 73 24" fill="none" xmlns="http://www.w3.org/2000/svg">
<path d="M12.1136 0.00338844C13.2322 0.101763 13.907 1.3065 13.3484 2.29976C12.7603 3.34481 11.2131 3.32723 10.6545 2.26364C10.1268 1.25945 10.8188 0.0936843 11.9293 0.00338844C11.9812 -0.000888736 12.0617 -0.00136398 12.1131 0.00338844H12.1136Z" fill="url(#paint0_linear_3249_2903)"/>
<path d="M11.7848 9.76421C13.6029 9.6107 14.8958 11.4779 14.0191 13.0966C13.1572 14.6872 10.8414 14.6673 10.0061 13.0605C9.28133 11.6656 10.209 9.8968 11.7843 9.76421H11.7848Z" fill="url(#paint1_linear_3249_2903)"/>
<path d="M6.22345 4.88021C7.37206 4.76995 8.23828 5.83449 7.84827 6.9304C7.41349 8.15129 5.69914 8.28579 5.06864 7.15661C4.54386 6.21611 5.1415 4.98428 6.22345 4.88021Z" fill="url(#paint2_linear_3249_2903)"/>
<path d="M17.4495 4.8792C18.8047 4.75849 19.6624 6.25312 18.839 7.33762C18.1376 8.26149 16.6656 8.07139 16.2127 7.0078C15.8156 6.0749 16.4294 4.96997 17.4495 4.8792Z" fill="url(#paint3_linear_3249_2903)"/>
<path d="M6.23986 16.0207C7.37943 15.9148 8.23422 16.9893 7.84897 18.0709C7.46372 19.1526 6.00223 19.4254 5.24649 18.549C4.44741 17.6223 5.01934 16.1343 6.23986 16.0207Z" fill="url(#paint4_linear_3249_2903)"/>
<path d="M17.473 16.096C18.7325 15.9838 19.593 17.315 18.9454 18.4071C18.3111 19.4764 16.6915 19.3623 16.2162 18.2137C15.8257 17.2708 16.4472 16.1868 17.4734 16.0955H17.473V16.096Z" fill="url(#paint5_linear_3249_2903)"/>
<path d="M11.8875 20.9438C12.9447 20.8863 13.7319 21.8795 13.4471 22.8984C13.1042 24.125 11.4356 24.4026 10.7127 23.3471C10.037 22.36 10.6908 21.0089 11.8875 20.9438Z" fill="url(#paint6_linear_3249_2903)"/>
<path d="M22.3064 10.4932C23.6807 10.3611 24.5479 11.8691 23.7045 12.9602C22.8826 14.0233 21.1449 13.5414 20.9754 12.2103C20.8711 11.39 21.4668 10.5735 22.3059 10.4932H22.3064Z" fill="url(#paint7_linear_3249_2903)"/>
<path d="M1.34285 10.4932C2.71719 10.3611 3.58436 11.8691 2.741 12.9602C1.91906 14.0233 0.181379 13.5414 0.0118488 12.2103C-0.0924409 11.39 0.503296 10.5735 1.34238 10.4932H1.34285Z" fill="url(#paint8_linear_3249_2903)"/>
<path d="M17.5086 9.58043C19.411 9.48016 20.6868 11.5303 19.7687 13.1984C18.9034 14.7701 16.6638 14.8894 15.6285 13.4228C14.518 11.8497 15.5956 9.68166 17.5086 9.58091V9.58043ZM17.5238 9.9169C15.6418 10.0167 14.8251 12.3558 16.2461 13.6015C17.2543 14.4854 18.8367 14.1984 19.4772 13.0297C20.2673 11.5879 19.1615 9.83041 17.5238 9.9169Z" fill="url(#paint9_linear_3249_2903)"/>
<path d="M11.7782 15.1902C13.2697 15.0685 14.5092 16.1896 14.4649 17.6885C14.3978 19.9659 11.5253 20.9054 10.1105 19.1266C8.92854 17.64 9.88191 15.3456 11.7782 15.1906V15.1902ZM11.7939 15.5271C10.8496 15.6108 10.0553 16.4258 9.94334 17.3535C9.72333 19.1765 11.7791 20.3969 13.2739 19.3157C15.0045 18.064 13.9744 15.3346 11.7939 15.5271Z" fill="url(#paint10_linear_3249_2903)"/>
<path d="M11.9598 3.96304L12.0779 3.95876C13.9956 4.01627 15.1323 6.14107 14.0608 7.75927C13.116 9.18595 10.9869 9.19973 10.0183 7.79016C8.91446 6.18337 10.0355 4.0253 11.9598 3.96352V3.96304ZM11.9598 4.29951C10.3174 4.36319 9.34781 6.21568 10.2945 7.59056C11.1426 8.82238 12.9727 8.8029 13.7942 7.55397C14.7061 6.16721 13.7108 4.34466 12.0779 4.29523L11.9598 4.29951Z" fill="url(#paint11_linear_3249_2903)"/>
<path d="M6.29606 9.58005C8.19709 9.48547 9.46856 11.5371 8.54615 13.2033C7.67707 14.773 5.41889 14.889 4.40075 13.4067C3.31214 11.8222 4.38456 9.67509 6.29606 9.58005ZM6.29606 9.91652C4.66648 10.0154 3.74263 11.8512 4.67648 13.2076C5.63985 14.6067 7.79564 14.3396 8.38471 12.7513C8.90902 11.3375 7.80279 9.82527 6.29606 9.91652Z" fill="url(#paint12_linear_3249_2903)"/>
<path d="M6.72869 1.14876C7.84635 1.02758 8.10064 2.62581 7.08489 2.89718C5.82199 3.2346 5.4934 1.28278 6.72869 1.14876Z" fill="url(#paint13_linear_3249_2903)"/>
<path d="M1.9285 15.6399C3.09236 15.5615 3.2195 17.3284 2.06184 17.4259C0.884179 17.5247 0.729887 15.7207 1.9285 15.6399Z" fill="url(#paint14_linear_3249_2903)"/>
<path d="M1.9285 6.4028C3.09236 6.32439 3.2195 8.09133 2.06184 8.18876C0.884179 8.28761 0.729887 6.48359 1.9285 6.4028Z" fill="url(#paint15_linear_3249_2903)"/>
<path d="M17.1552 1.14974C18.4109 1.00764 18.4971 2.92666 17.2738 2.93759C16.1623 2.94757 16.0556 1.27425 17.1552 1.14974Z" fill="url(#paint16_linear_3249_2903)"/>
<path d="M6.71222 21.029C7.35748 20.9558 7.85845 21.5171 7.69606 22.1487C7.5151 22.8521 6.5865 23.0345 6.13362 22.4709C5.70837 21.941 6.03362 21.106 6.71269 21.029H6.71222Z" fill="url(#paint17_linear_3249_2903)"/>
<path d="M21.8936 6.40948C23.2551 6.24694 23.2461 8.29096 21.9508 8.18023C20.9074 8.09136 20.8941 6.52829 21.8936 6.40948Z" fill="url(#paint18_linear_3249_2903)"/>
<path d="M17.155 21.0284C17.8979 20.9481 18.4079 21.7175 18.035 22.3657C17.6969 22.9536 16.8245 22.945 16.4912 22.3557C16.1807 21.8068 16.5226 21.0968 17.1555 21.0284H17.155Z" fill="url(#paint19_linear_3249_2903)"/>
<path d="M21.8227 15.6377C22.9899 15.6115 23.0408 17.3813 21.8798 17.425C20.6984 17.4697 20.6398 15.6643 21.8227 15.6377Z" fill="url(#paint20_linear_3249_2903)"/>
<path d="M42.8074 6.07143C42.8074 8.00951 42.0752 8.926 40.4123 9.1512C41.9989 9.31654 42.8074 10.0075 42.8074 11.5098V14.3943H39.8163V11.6901C39.8163 10.398 39.2834 10.263 37.6205 10.263H34.8758V14.3943H32.0373V2.6763H38.8407C42.0135 2.6763 42.8066 3.35226 42.8066 6.07179H42.8074V6.07143ZM38.0173 8.22413C39.4513 8.22413 39.9689 7.72409 39.9689 6.52219C39.9689 5.32028 39.4513 4.86514 38.0173 4.86514H34.8762V8.22413H38.0173Z" fill="url(#paint21_linear_3249_2903)"/>
<path d="M52.3747 14.4846C48.1492 14.4846 47.0966 13.4929 47.0966 9.49666V2.58596H49.9348V9.49666C49.9348 11.6902 50.5133 12.2954 52.3743 12.2954C54.2354 12.2954 54.8139 11.6899 54.8139 9.49666V2.58596H57.6524V9.49666C57.6524 13.4929 56.5998 14.4846 52.3743 14.4846H52.3747Z" fill="url(#paint22_linear_3249_2903)"/>
<path d="M61.9417 2.67612H64.7798V7.24541H70.086V2.67612H72.9245V14.3944H70.086V9.58498H64.7798V14.3944H61.9417V2.67612Z" fill="url(#paint23_linear_3249_2903)"/>
<path d="M32.0373 21.3434V17.1668H33.6177C34.8426 17.1668 35.6948 18.0249 35.6948 19.2666C35.6948 20.5083 34.8652 21.3437 33.6743 21.3437H32.0377L32.0373 21.3434ZM32.9516 18.0132V20.4966H33.5837C34.3061 20.4966 34.7294 20.0393 34.7294 19.2662C34.7294 18.4932 34.2834 18.0132 33.5272 18.0132H32.9516Z" fill="url(#paint24_linear_3249_2903)"/>
<path d="M37.1961 21.3434V17.1668H39.8488V18.0136H38.1104V18.8319H39.6514V19.6334H38.1104V20.497H39.8488V21.3437H37.1961V21.3434Z" fill="url(#paint25_linear_3249_2903)"/>
<path d="M41.35 17.167H42.3264L43.1166 19.2781C43.2126 19.5376 43.2914 19.7975 43.3819 20.1584C43.4892 19.7577 43.5681 19.5263 43.6586 19.2781L44.4375 17.167H45.3912L43.856 21.3436H42.9136L41.3504 17.167H41.35Z" fill="url(#paint26_linear_3249_2903)"/>
<path d="M46.8924 21.3434V17.1668H49.5452V18.0136H47.8067V18.8319H49.3477V19.6334H47.8067V20.497H49.5452V21.3437H46.8924V21.3434Z" fill="url(#paint27_linear_3249_2903)"/>
<path d="M51.9611 20.4968H53.609V21.3436H51.0464V17.167H51.9607V20.4971L51.9611 20.4968Z" fill="url(#paint28_linear_3249_2903)"/>
<path d="M57.1476 21.4142C55.9398 21.4142 55.1102 20.5338 55.1102 19.2582C55.1102 17.9826 55.9457 17.0964 57.1534 17.0964C58.3612 17.0964 59.2021 17.9767 59.2021 19.2524C59.2021 20.528 58.3612 21.4142 57.1476 21.4142ZM57.1589 17.9771C56.4815 17.9771 56.0752 18.4567 56.0752 19.2527C56.0752 20.0488 56.4815 20.5338 57.1589 20.5338C57.8363 20.5338 58.2371 20.0429 58.2371 19.2527C58.2371 18.4625 57.8308 17.9771 57.1589 17.9771Z" fill="url(#paint29_linear_3249_2903)"/>
<path d="M61.6176 19.9551V21.3436H60.7033V17.167H62.3965C63.2488 17.167 63.8189 17.7258 63.8189 18.5612C63.8189 19.3967 63.2488 19.9555 62.3965 19.9555H61.6176V19.9551ZM61.6176 17.9798V19.1427H62.1932C62.6334 19.1427 62.8535 18.9507 62.8535 18.5612C62.8535 18.1718 62.6334 17.9798 62.1932 17.9798H61.6176Z" fill="url(#paint30_linear_3249_2903)"/>
<path d="M65.3201 21.3434V17.1668H67.9728V18.0136H66.2344V18.8319H67.7754V19.6334H66.2344V20.497H67.9728V21.3437H65.3201V21.3434Z" fill="url(#paint31_linear_3249_2903)"/>
<path d="M69.4741 21.3436V17.167H71.0884C72.1042 17.167 72.6801 17.6579 72.6801 18.5215C72.6801 19.0635 72.4487 19.4471 71.9859 19.6843L72.7195 21.3436H71.7206L71.0939 19.8818H70.3884V21.3436H69.4741ZM70.3884 19.0799H71.0826C71.4833 19.0799 71.7147 18.8766 71.7147 18.5211C71.7147 18.1656 71.4946 17.9791 71.0884 17.9791H70.3884V19.0795V19.0799Z" fill="url(#paint32_linear_3249_2903)"/>
<defs>
<linearGradient id="paint0_linear_3249_2903" x1="7.53913" y1="-4.26333" x2="26.9145" y2="21.0181" gradientUnits="userSpaceOnUse">
<stop stop-color="#AE00D0"/>
<stop offset="1" stop-color="#8323F7"/>
</linearGradient>
<linearGradient id="paint1_linear_3249_2903" x1="2.47679" y1="-0.383629" x2="21.8517" y2="24.8983" gradientUnits="userSpaceOnUse">
<stop stop-color="#AE00D0"/>
<stop offset="1" stop-color="#8323F7"/>
</linearGradient>
<linearGradient id="paint2_linear_3249_2903" x1="1.6628" y1="0.238996" x2="21.0377" y2="25.5209" gradientUnits="userSpaceOnUse">
<stop stop-color="#AE00D0"/>
<stop offset="1" stop-color="#8323F7"/>
</linearGradient>
<linearGradient id="paint3_linear_3249_2903" x1="8.71722" y1="-5.16694" x2="28.0926" y2="20.1145" gradientUnits="userSpaceOnUse">
<stop stop-color="#AE00D0"/>
<stop offset="1" stop-color="#8323F7"/>
</linearGradient>
<linearGradient id="paint4_linear_3249_2903" x1="-3.73099" y1="4.37019" x2="15.6439" y2="29.6516" gradientUnits="userSpaceOnUse">
<stop stop-color="#AE00D0"/>
<stop offset="1" stop-color="#8323F7"/>
</linearGradient>
<linearGradient id="paint5_linear_3249_2903" x1="3.29385" y1="-1.007" x2="22.6692" y2="24.2744" gradientUnits="userSpaceOnUse">
<stop stop-color="#AE00D0"/>
<stop offset="1" stop-color="#8323F7"/>
</linearGradient>
<linearGradient id="paint6_linear_3249_2903" x1="-2.6135" y1="3.51856" x2="16.7614" y2="28.8005" gradientUnits="userSpaceOnUse">
<stop stop-color="#AE00D0"/>
<stop offset="1" stop-color="#8323F7"/>
</linearGradient>
<linearGradient id="paint7_linear_3249_2903" x1="9.06733" y1="-5.43687" x2="28.4422" y2="19.8446" gradientUnits="userSpaceOnUse">
<stop stop-color="#AE00D0"/>
<stop offset="1" stop-color="#8323F7"/>
</linearGradient>
<linearGradient id="paint8_linear_3249_2903" x1="-4.11974" y1="4.66915" x2="15.2556" y2="29.9511" gradientUnits="userSpaceOnUse">
<stop stop-color="#AE00D0"/>
<stop offset="1" stop-color="#8323F7"/>
</linearGradient>
<linearGradient id="paint9_linear_3249_2903" x1="6.00243" y1="-3.08618" x2="25.3778" y2="22.1953" gradientUnits="userSpaceOnUse">
<stop stop-color="#AE00D0"/>
<stop offset="1" stop-color="#8323F7"/>
</linearGradient>
<linearGradient id="paint10_linear_3249_2903" x1="-0.223708" y1="1.69046" x2="19.1512" y2="26.9719" gradientUnits="userSpaceOnUse">
<stop stop-color="#AE00D0"/>
<stop offset="1" stop-color="#8323F7"/>
</linearGradient>
<linearGradient id="paint11_linear_3249_2903" x1="5.1967" y1="-2.47173" x2="24.5721" y2="22.8102" gradientUnits="userSpaceOnUse">
<stop stop-color="#AE00D0"/>
<stop offset="1" stop-color="#8323F7"/>
</linearGradient>
<linearGradient id="paint12_linear_3249_2903" x1="-1.05469" y1="2.32168" x2="18.3207" y2="27.6031" gradientUnits="userSpaceOnUse">
<stop stop-color="#AE00D0"/>
<stop offset="1" stop-color="#8323F7"/>
</linearGradient>
<linearGradient id="paint13_linear_3249_2903" x1="4.04525" y1="-1.5891" x2="23.4206" y2="23.6923" gradientUnits="userSpaceOnUse">
<stop stop-color="#AE00D0"/>
<stop offset="1" stop-color="#8323F7"/>
</linearGradient>
<linearGradient id="paint14_linear_3249_2903" x1="-6.02132" y1="6.12701" x2="13.3536" y2="31.4085" gradientUnits="userSpaceOnUse">
<stop stop-color="#AE00D0"/>
<stop offset="1" stop-color="#8323F7"/>
</linearGradient>
<linearGradient id="paint15_linear_3249_2903" x1="-1.5502" y1="2.70019" x2="17.8252" y2="27.9821" gradientUnits="userSpaceOnUse">
<stop stop-color="#AE00D0"/>
<stop offset="1" stop-color="#8323F7"/>
</linearGradient>
<linearGradient id="paint16_linear_3249_2903" x1="10.6073" y1="-6.61714" x2="29.9822" y2="18.6648" gradientUnits="userSpaceOnUse">
<stop stop-color="#AE00D0"/>
<stop offset="1" stop-color="#8323F7"/>
</linearGradient>
<linearGradient id="paint17_linear_3249_2903" x1="-5.57587" y1="5.78708" x2="13.7995" y2="31.0685" gradientUnits="userSpaceOnUse">
<stop stop-color="#AE00D0"/>
<stop offset="1" stop-color="#8323F7"/>
</linearGradient>
<linearGradient id="paint18_linear_3249_2903" x1="11.0651" y1="-6.97142" x2="30.4405" y2="18.31" gradientUnits="userSpaceOnUse">
<stop stop-color="#AE00D0"/>
<stop offset="1" stop-color="#8323F7"/>
</linearGradient>
<linearGradient id="paint19_linear_3249_2903" x1="0.986761" y1="0.756946" x2="20.3617" y2="26.0389" gradientUnits="userSpaceOnUse">
<stop stop-color="#AE00D0"/>
<stop offset="1" stop-color="#8323F7"/>
</linearGradient>
<linearGradient id="paint20_linear_3249_2903" x1="6.4702" y1="-3.44757" x2="25.8456" y2="21.8339" gradientUnits="userSpaceOnUse">
<stop stop-color="#AE00D0"/>
<stop offset="1" stop-color="#8323F7"/>
</linearGradient>
<linearGradient id="paint21_linear_3249_2903" x1="11.833" y1="-27.7512" x2="59.289" y2="28.9776" gradientUnits="userSpaceOnUse">
<stop stop-color="#AE00D0"/>
<stop offset="1" stop-color="#8323F7"/>
</linearGradient>
<linearGradient id="paint22_linear_3249_2903" x1="27.2942" y1="-28.3107" x2="75.7545" y2="27.6042" gradientUnits="userSpaceOnUse">
<stop stop-color="#AE00D0"/>
<stop offset="1" stop-color="#8323F7"/>
</linearGradient>
<linearGradient id="paint23_linear_3249_2903" x1="41.3381" y1="-27.7524" x2="88.6235" y2="29.8875" gradientUnits="userSpaceOnUse">
<stop stop-color="#AE00D0"/>
<stop offset="1" stop-color="#8323F7"/>
</linearGradient>
<linearGradient id="paint24_linear_3249_2903" x1="25.1758" y1="6.32075" x2="42.2176" y2="25.7293" gradientUnits="userSpaceOnUse">
<stop stop-color="#AE00D0"/>
<stop offset="1" stop-color="#8323F7"/>
</linearGradient>
<linearGradient id="paint25_linear_3249_2903" x1="32.2196" y1="6.32075" x2="49.0964" y2="20.2611" gradientUnits="userSpaceOnUse">
<stop stop-color="#AE00D0"/>
<stop offset="1" stop-color="#8323F7"/>
</linearGradient>
<linearGradient id="paint26_linear_3249_2903" x1="33.769" y1="6.32188" x2="50.5093" y2="27.3886" gradientUnits="userSpaceOnUse">
<stop stop-color="#AE00D0"/>
<stop offset="1" stop-color="#8323F7"/>
</linearGradient>
<linearGradient id="paint27_linear_3249_2903" x1="41.916" y1="6.32075" x2="58.7928" y2="20.2611" gradientUnits="userSpaceOnUse">
<stop stop-color="#AE00D0"/>
<stop offset="1" stop-color="#8323F7"/>
</linearGradient>
<linearGradient id="paint28_linear_3249_2903" x1="46.2391" y1="6.32188" x2="62.9953" y2="19.6934" gradientUnits="userSpaceOnUse">
<stop stop-color="#AE00D0"/>
<stop offset="1" stop-color="#8323F7"/>
</linearGradient>
<linearGradient id="paint29_linear_3249_2903" x1="47.4339" y1="5.88448" x2="64.8183" y2="27.3116" gradientUnits="userSpaceOnUse">
<stop stop-color="#AE00D0"/>
<stop offset="1" stop-color="#8323F7"/>
</linearGradient>
<linearGradient id="paint30_linear_3249_2903" x1="54.8587" y1="6.32188" x2="72.0354" y2="22.9867" gradientUnits="userSpaceOnUse">
<stop stop-color="#AE00D0"/>
<stop offset="1" stop-color="#8323F7"/>
</linearGradient>
<linearGradient id="paint31_linear_3249_2903" x1="60.3436" y1="6.32075" x2="77.2204" y2="20.2611" gradientUnits="userSpaceOnUse">
<stop stop-color="#AE00D0"/>
<stop offset="1" stop-color="#8323F7"/>
</linearGradient>
<linearGradient id="paint32_linear_3249_2903" x1="63.3856" y1="6.32188" x2="80.5693" y2="23.6887" gradientUnits="userSpaceOnUse">
<stop stop-color="#AE00D0"/>
<stop offset="1" stop-color="#8323F7"/>
</linearGradient>
</defs>
</svg>
